HIERARCHY
ROOT SimulationBone
{
	OFFSET 0.000000 0.000000 0.000000
	CHANNELS 6 Xposition Yposition Zposition Zrotation Yrotation Xrotation 
	JOINT Hips
	{
		OFFSET 0.000000 0.000000 0.000000
		CHANNELS 6 Xposition Yposition Zposition Zrotation Yrotation Xrotation 
		JOINT RightUpLeg
		{
			OFFSET 0.103459 1.857826 10.548510
			CHANNELS 3 Zrotation Yrotation Xrotation
			JOINT RightLeg
			{
				OFFSET 43.500000 -0.000023 0.000004
				CHANNELS 3 Zrotation Yrotation Xrotation
				JOINT RightFoot
				{
					OFFSET 42.372200 0.000015 0.000002
					CHANNELS 3 Zrotation Yrotation Xrotation
					JOINT RightToe
					{
						OFFSET 17.299997 -0.000001 -0.000010
						CHANNELS 3 Zrotation Yrotation Xrotation
						End Site
						{
							OFFSET 0.000000 0.000000 0.000000
						}
					}
				}
			}
		}
		JOINT LeftUpLeg
		{
			OFFSET 0.103462 1.857828 -10.548512
			CHANNELS 3 Zrotation Yrotation Xrotation
			JOINT LeftLeg
			{
				OFFSET 43.500046 -0.000019 0.000004
				CHANNELS 3 Zrotation Yrotation Xrotation
				JOINT LeftFoot
				{
					OFFSET 42.372265 -0.000008 0.000019
					CHANNELS 3 Zrotation Yrotation Xrotation
					JOINT LeftToe
					{
						OFFSET 17.299994 -0.000005 -0.000002
						CHANNELS 3 Zrotation Yrotation Xrotation
						End Site
						{
							OFFSET 0.000000 0.000000 0.000000
						}
					}
				}
			}
		}
		JOINT Spine
		{
			OFFSET 6.901970 -2.603727 0.000005
			CHANNELS 3 Zrotation Yrotation Xrotation
			JOINT Spine1
			{
				OFFSET 12.588102 0.000001 -0.000000
				CHANNELS 3 Zrotation Yrotation Xrotation
				JOINT Spine2
				{
					OFFSET 12.343201 -0.000005 -0.000002
					CHANNELS 3 Zrotation Yrotation Xrotation
					JOINT Neck
					{
						OFFSET 25.832886 -0.000002 0.000004
						CHANNELS 3 Zrotation Yrotation Xrotation
						JOINT Head
						{
							OFFSET 11.766621 0.000007 -0.000003
							CHANNELS 3 Zrotation Yrotation Xrotation
							End Site
							{
								OFFSET 0.000000 0.000000 0.000000
							}
						}
					}
					JOINT RightShoulder
					{
						OFFSET 19.745899 -1.480368 6.000106
						CHANNELS 3 Zrotation Yrotation Xrotation
						JOINT RightArm
						{
							OFFSET 11.284125 -0.000008 -0.000024
							CHANNELS 3 Zrotation Yrotation Xrotation
							JOINT RightForeArm
							{
								OFFSET 33.000053 0.000001 0.000031
								CHANNELS 3 Zrotation Yrotation Xrotation
								JOINT RightHand
								{
									OFFSET 25.200008 0.000018 0.000007
									CHANNELS 3 Zrotation Yrotation Xrotation
									End Site
									{
										OFFSET 0.000000 0.000000 0.000000
									}
								}
							}
						}
					}
					JOINT LeftShoulder
					{
						OFFSET 19.746098 -1.480373 -6.000077
						CHANNELS 3 Zrotation Yrotation Xrotation
						JOINT LeftArm
						{
							OFFSET 11.284138 -0.000021 -0.000000
							CHANNELS 3 Zrotation Yrotation Xrotation
							JOINT LeftForeArm
							{
								OFFSET 33.000088 0.000017 0.000003
								CHANNELS 3 Zrotation Yrotation Xrotation
								JOINT LeftHand
								{
									OFFSET 25.199770 0.000141 0.000423
									CHANNELS 3 Zrotation Yrotation Xrotation
									End Site
									{
										OFFSET 0.000000 0.000000 0.000000
									}
								}
							}
						}
					}
				}
			}
		}
	}
}
MOTION
Frames: 13
Frame Time: 0.033333
-31.558927 0.000000 -122.290869 180.000000 -36.312829 180.000000 3.327846 83.719612 4.289002 105.973699 7.952744 175.099138 164.289901 -9.612902 177.267847 -56.683320 2.421657 3.648039 94.464460 -2.567768 -0.151095 21.454560 0.003106 0.000016 164.329557 17.284096 -157.491431 -62.997505 2.257930 -0.263991 80.645314 2.661025 10.335622 21.454553 -0.003092 0.000000 10.371927 0.057000 0.688934 10.731304 0.049884 1.380157 10.413300 0.058082 1.379819 0.201166 -12.469240 -11.801435 -49.937299 9.823417 -22.360655 -179.520020 -71.314114 -1.842048 -7.230308 30.603151 5.932885 -46.883047 -23.545458 2.250648 5.533400 -23.672601 -14.788468 177.538992 77.101989 -1.032482 -32.628712 -38.291465 13.951843 -105.946896 1.355564 -3.106694 -18.442465 -12.373934 -41.108016 
-27.702419 0.000000 -122.930753 180.000000 -33.773913 180.000000 3.870629 84.615379 3.997893 105.707588 7.555047 176.834517 163.325041 -9.206409 175.990616 -53.231424 2.164961 3.746359 90.991965 -2.524363 0.596789 21.454560 0.003105 0.000017 167.543557 15.749998 -156.077964 -70.793408 1.554035 -1.811324 80.245044 3.896560 10.688599 21.454558 -0.003092 -0.000001 10.076476 0.099125 1.002330 10.141106 0.110059 2.009453 9.823208 0.122050 2.008739 0.884471 -11.952561 -11.921191 -49.409814 9.869658 -22.265124 -179.538926 -71.052006 -1.818006 -5.813396 34.981784 19.210228 -32.472953 -19.569013 1.599464 11.063036 -19.769108 -25.204937 175.908790 77.492526 -2.685599 -34.108780 -39.316765 14.585903 -104.963697 1.513202 -3.074593 -19.552096 -10.951064 -40.871049 
-23.753081 0.000000 -123.603146 180.000000 -31.305654 180.000000 4.495389 85.215508 3.565130 105.464455 6.959029 178.298414 162.380221 -8.481703 174.218591 -49.945526 2.228639 3.863113 87.582348 -2.474064 1.239533 21.454557 0.003115 0.000018 172.097476 14.092894 -156.201399 -75.615658 1.623231 -2.630167 77.943182 4.985461 11.726841 21.454557 -0.003091 -0.000001 9.739117 0.069928 1.316122 9.465764 0.032027 2.633506 9.148044 0.047791 2.633263 1.949521 -10.361876 -11.995416 -49.029697 9.031738 -21.291549 179.812981 -70.718201 -1.144040 -2.733610 40.428815 30.005940 -22.330487 -15.983136 1.190454 10.197329 -8.968932 -18.585971 177.619670 77.353115 -0.944551 -35.177404 -38.556350 14.344343 -104.568291 1.512707 -3.057194 -20.685826 -8.725616 -40.446154 
-19.716727 0.000000 -124.303614 180.000000 -28.921268 180.000000 5.194263 85.418381 3.164762 105.231160 6.188666 179.415411 161.261845 -7.603307 172.775810 -47.191724 2.076653 3.679568 84.461771 -2.233084 1.627448 21.454560 0.003108 0.000017 177.579905 12.177309 -157.521224 -77.509178 1.955833 -3.334538 77.382239 5.709515 12.354731 21.454557 -0.003091 -0.000001 9.391123 0.039561 1.545629 8.768901 -0.037984 3.089758 8.451298 -0.019472 3.089924 3.053089 -9.103850 -11.895120 -48.758135 8.225769 -20.267949 -179.465939 -69.991216 -1.874020 3.724305 45.948653 39.319336 -18.464870 -14.174194 1.028534 10.104854 2.075975 -0.178172 178.521310 77.679741 -0.018206 -35.888379 -37.159627 14.000334 -104.538402 1.494324 -3.054611 -21.643712 -6.860435 -40.470910 
-15.599170 0.000000 -125.027723 180.000000 -26.631905 180.000000 5.876852 85.312561 2.732301 105.374049 5.446107 -179.596711 160.291303 -6.557911 172.287000 -44.774748 1.686173 2.913929 81.495126 -1.646643 1.651676 21.454553 0.003110 0.000019 -175.903312 10.094801 -159.480682 -76.186122 2.184832 -4.529675 78.616693 6.159197 11.447990 21.454557 -0.003092 0.000000 9.158176 0.073533 1.751774 8.303856 0.021359 3.504247 7.986402 0.042376 3.504047 4.654257 -8.473269 -11.885239 -49.380956 7.801217 -19.839411 -178.338999 -69.831198 -3.034047 12.950221 51.477046 49.987767 -18.558727 -13.294652 0.973768 11.141639 10.455441 16.409022 -179.453918 77.879921 2.049309 -36.151460 -34.969718 13.927385 -105.169293 1.363393 -3.073172 -21.610427 -5.837519 -40.742198 
-11.406225 0.000000 -125.771038 180.000000 -24.446530 180.000000 6.481399 85.003761 2.294893 105.534623 4.753151 -178.752845 159.218991 -5.376802 172.569237 -42.390384 1.400463 1.610161 78.804004 -0.986567 0.495317 21.454557 0.003109 0.000017 -169.316578 7.746599 -161.984848 -71.638207 2.068206 -4.971954 79.411249 6.287528 11.073603 21.454550 -0.003092 0.000000 8.966932 0.141649 2.057765 7.923643 0.142326 4.120330 7.606421 0.167041 4.119399 6.635999 -7.680467 -12.252325 -50.783986 6.912685 -19.549584 -179.108051 -70.416901 -2.249988 24.139898 56.276428 62.973381 -20.047823 -12.746419 0.955699 10.707955 15.515453 25.341501 -174.963068 77.698128 6.624941 -35.861556 -32.699377 13.907217 -105.578797 1.273586 -3.084869 -21.657085 -4.128526 -40.053609 
-7.143707 0.000000 -126.529126 180.000000 -22.371928 180.000000 6.937545 84.639954 1.936691 105.780667 4.224634 -178.138824 158.413725 -4.327195 173.746475 -39.432608 1.063379 -0.371449 75.998962 -0.306606 -2.113172 21.454558 0.003112 0.000017 -162.936772 5.329104 -165.014010 -64.032661 1.946832 -4.143782 80.437048 5.489876 10.659711 21.454560 -0.003092 0.000000 8.854810 0.283788 2.400794 7.705445 0.407409 4.815099 7.388557 0.436316 4.812556 8.298077 -7.690992 -12.694668 -51.817797 6.437588 -19.725269 179.037973 -71.036201 -0.352059 35.878738 59.790677 75.697948 -21.541554 -12.697060 0.971108 9.292477 20.627096 23.658710 -168.272884 77.269903 13.447586 -35.840864 -31.194761 14.132344 -105.375100 1.273685 -3.075945 -21.212822 -2.361716 -39.620589 
-2.817429 0.000000 -127.297551 180.000000 -20.412805 180.000000 7.007481 84.314651 1.610461 105.911257 3.706259 -178.341355 157.942742 -3.608707 174.583310 -35.449833 0.730965 -2.580812 73.384468 0.361281 -4.967020 21.454558 0.003111 0.000018 -157.593569 3.569701 -168.232655 -53.601443 1.265455 -2.896610 80.196304 4.248271 9.039151 21.454550 -0.003091 0.000000 8.805757 0.419936 2.778636 7.614847 0.656484 5.578861 7.298347 0.689973 5.574804 10.340762 -8.104837 -12.981881 -53.314852 6.175873 -19.970961 176.318970 -71.256522 2.442992 45.987209 61.963387 83.577781 -22.978725 -12.017580 0.947015 6.617782 24.564806 16.392584 -165.208206 76.753677 16.577979 -35.234832 -30.267389 14.120159 -104.300793 1.447155 -3.040877 -20.204857 -1.000829 -39.560428 
1.566794 0.000000 -128.071879 180.000000 -18.571961 180.000000 6.288259 83.787971 1.399062 105.399334 3.257024 -179.510848 156.902341 -3.465393 173.606156 -30.804180 0.936351 -4.057223 72.306841 0.772143 -6.880696 21.454558 0.003110 0.000015 -154.888050 2.890791 -172.061659 -42.691425 0.718556 -2.302858 84.033662 3.191636 7.541210 21.454545 -0.003091 0.000000 8.811828 0.540088 3.106867 7.634960 0.874409 6.242656 7.318864 0.911880 6.237289 11.351610 -9.052789 -12.812079 -54.569397 6.148424 -19.962688 175.477040 -71.101989 3.313001 51.703938 63.875909 87.063151 -24.152012 -12.730013 1.009718 4.060846 28.153662 10.944169 -163.981395 76.953337 17.829411 -35.578568 -30.442030 14.434618 -101.950894 1.885965 -2.967866 -18.976868 0.435593 -40.690323 
6.003148 0.000000 -128.847677 180.000000 -16.850517 180.000000 5.447259 83.406036 1.353985 104.905594 4.269002 179.796414 156.219062 -4.843201 173.258130 -25.835559 0.699588 -4.363395 73.997040 0.985414 -7.265555 21.454558 0.003111 0.000016 -155.284323 2.088197 -174.731211 -37.636064 1.938071 -0.568418 93.301743 0.923239 4.424115 21.454551 -0.003092 0.000000 8.977226 1.006418 3.125659 7.992220 1.794880 6.314008 7.676042 1.832764 6.303113 10.880844 -10.513310 -12.004225 -55.709075 6.293747 -19.524770 175.968978 -70.487914 2.822035 49.451628 65.659305 85.068476 -25.765024 -13.573182 1.088877 2.232216 26.542457 9.385465 -165.348211 77.776594 16.429583 -36.698579 -31.278773 15.079827 -98.531121 2.570672 -2.864093 -16.929426 1.178408 -41.495704 
10.485820 0.000000 -129.620509 180.000000 -15.248158 180.000000 4.777875 82.674217 1.520598 104.968399 6.530220 179.692753 156.088810 -7.934402 173.705521 -21.675667 -0.061392 -4.141641 77.655754 0.068958 -11.030661 21.454555 0.003104 0.000017 -158.580682 1.371001 -173.474538 -38.715848 2.783968 -1.301127 99.625255 1.089518 3.780296 21.454550 -0.003091 0.000000 9.403020 1.750636 2.872086 8.881036 3.275828 5.872421 8.564158 3.311034 5.852604 9.503606 -11.106677 -10.507122 -56.973774 6.025430 -18.013593 176.067032 -69.355913 2.749990 39.879600 66.057232 79.563590 -27.969546 -15.206634 1.231048 1.948783 19.072180 11.369708 -172.142323 78.980947 9.508796 -37.766650 -31.966474 15.090652 -93.845775 3.946482 -2.751907 -14.965501 2.205222 -41.185873 
15.008993 0.000000 -130.385943 180.000000 -13.763383 180.000000 4.011728 82.178940 1.769201 105.472338 7.565415 179.838064 154.561840 -10.116593 170.707232 -23.479240 0.087586 -4.505351 79.164406 -0.056582 -13.135699 21.454558 0.003110 0.000017 -163.804506 2.155001 -172.168606 -43.677936 3.474831 -3.661595 102.971105 2.452329 2.637736 21.454551 -0.003092 0.000000 10.052259 2.188876 2.294989 10.185596 4.167205 4.777074 9.867746 4.195808 4.751852 6.291574 -10.740221 -8.034597 -56.340871 5.486913 -15.007519 176.034056 -68.350290 2.810052 26.034572 64.411088 72.814113 -29.798503 -17.866359 1.435173 2.404604 11.071066 12.918376 -177.500142 79.660086 4.066472 -40.477450 -31.543958 10.151067 -86.789814 9.498524 -2.828177 -13.049960 4.360054 -38.560274 
19.566855 0.000000 -131.139542 180.000000 -12.393740 180.000000 3.414138 82.375954 2.111741 106.635964 7.357614 -179.054085 152.484479 -11.327808 167.608334 -34.898930 1.086685 -5.052740 78.452017 0.490986 -12.061441 21.454558 0.003101 0.000015 -168.790107 3.302795 -170.734976 -48.799735 3.823560 -5.177966 102.104300 3.401267 1.495878 21.454557 -0.003092 0.000000 10.784388 2.313589 1.438183 11.625519 4.470834 3.104244 11.306864 4.489353 3.077162 3.403178 -9.717756 -5.717099 -55.445413 5.147574 -12.176001 173.651016 -68.112019 5.279050 14.105427 61.177799 63.648327 -30.326901 -19.425147 1.545147 3.888030 4.178320 16.436367 175.903708 79.810836 -2.632837 -42.757326 -31.419779 4.211481 -77.112310 15.379750 -2.819320 -10.410380 4.903162 -34.210075 
